<?xml version="1.0" encoding="utf-8"?>
<!-- Generator: Adobe Illustrator 26.0.3, SVG Export Plug-In . SVG Version: 6.00 Build 0)  -->
<svg version="1.1" id="Camada_1" xmlns="http://www.w3.org/2000/svg" xmlns:xlink="http://www.w3.org/1999/xlink" x="0px" y="0px"
	 viewBox="0 0 64 64" style="enable-background:new 0 0 64 64;" xml:space="preserve">
<style type="text/css">
	.st0{fill:url(#SVGID_1_);}
	.st1{fill:url(#SVGID_00000025403558103974611800000004013805928843088823_);}
	.st2{fill:url(#SVGID_00000047033682386944842170000003849162226497553317_);}
	.st3{fill:url(#SVGID_00000022520640955194105140000011326792544961185428_);}
</style>
<linearGradient id="SVGID_1_" gradientUnits="userSpaceOnUse" x1="12.5204" y1="21.5077" x2="49.3174" y2="21.5077">
	<stop  offset="0" style="stop-color:#FFFFFF"/>
	<stop  offset="1" style="stop-color:#E6E6E6"/>
</linearGradient>
<path class="st0" d="M49.32,13.71c-2.69-1.4-5.74-2.19-8.97-2.19c-2.99,0-5.82,0.67-8.36,1.89c-3.79,1.79-6.9,4.78-8.86,8.48
	c-2.36,2.31-3.82,5.52-3.82,9.07c0,3.48,1.4,6.63,3.66,8.92c-3.74-1.95-6.76-5.09-8.57-8.91c-1.21-2.52-1.88-5.35-1.88-8.34
	c0-3.22,0.78-6.26,2.18-8.93c3.03-5.87,8.96-10.01,15.91-10.5c0.22-0.02,0.44-0.03,0.67-0.03c0.24,0,0.48-0.01,0.72-0.01
	c0.24,0,0.48,0.01,0.72,0.01C39.96,3.42,46.19,7.63,49.32,13.71z"/>
<linearGradient id="SVGID_00000124131854718598934470000009380488023383685266_" gradientUnits="userSpaceOnUse" x1="14.7397" y1="42.3848" x2="51.4757" y2="42.3848">
	<stop  offset="0" style="stop-color:#FFFFFF"/>
	<stop  offset="1" style="stop-color:#E6E6E6"/>
</linearGradient>
<path style="fill:url(#SVGID_00000124131854718598934470000009380488023383685266_);" d="M51.48,41.3c0,3.25-0.79,6.32-2.21,9.01
	C46.02,56.53,39.5,60.77,32,60.77s-14.01-4.23-17.26-10.44c2.66,1.38,5.68,2.15,8.89,2.15c2.99,0,5.83-0.68,8.36-1.89
	c3.83-1.83,6.98-4.87,8.93-8.64l0.01-0.02c2.3-2.29,3.72-5.47,3.72-8.97c0-3.49-1.42-6.66-3.7-8.95c3.78,1.95,6.82,5.11,8.64,8.96
	C50.81,35.48,51.48,38.31,51.48,41.3z"/>
<linearGradient id="SVGID_00000051372358542244228480000005877859308198864259_" gradientUnits="userSpaceOnUse" x1="3.148" y1="33.0821" x2="39.9188" y2="33.0821">
	<stop  offset="0" style="stop-color:#FFFFFF"/>
	<stop  offset="1" style="stop-color:#E6E6E6"/>
</linearGradient>
<path style="fill:url(#SVGID_00000051372358542244228480000005877859308198864259_);" d="M39.92,40.94
	c-1.95,3.77-5.1,6.81-8.93,8.64c-2.53,1.21-5.37,1.89-8.36,1.89c-3.2,0-6.22-0.77-8.89-2.15C7.65,46.21,3.43,39.97,3.16,32.72
	c0-0.24-0.01-0.48-0.01-0.72c0-0.24,0.01-0.48,0.01-0.72c0.01-0.23,0.02-0.45,0.03-0.67c0.5-6.95,4.63-12.88,10.5-15.91
	c-1.39,2.67-2.18,5.71-2.18,8.93c0,2.99,0.67,5.81,1.88,8.34c1.81,3.82,4.83,6.96,8.57,8.91c2.3,2.32,5.48,3.75,9.01,3.75
	C34.47,44.62,37.62,43.21,39.92,40.94z"/>
<linearGradient id="SVGID_00000028304088509001576880000005594095792523260318_" gradientUnits="userSpaceOnUse" x1="42.4758" y1="49.3047" x2="42.4758" y2="12.5165">
	<stop  offset="0" style="stop-color:#FFFFFF"/>
	<stop  offset="1" style="stop-color:#E6E6E6"/>
</linearGradient>
<path style="fill:url(#SVGID_00000028304088509001576880000005594095792523260318_);" d="M60.82,31.99
	c0,7.54-4.28,14.08-10.56,17.31c1.42-2.69,2.21-5.75,2.21-9.01c0-2.99-0.67-5.81-1.88-8.34c-1.82-3.85-4.87-7.01-8.64-8.96L41.94,23
	c-2.3-2.29-5.47-3.71-8.96-3.71c-3.45,0-6.56,1.38-8.85,3.59c1.96-3.7,5.07-6.68,8.86-8.48c2.53-1.22,5.36-1.89,8.36-1.89
	c3.24,0,6.28,0.79,8.97,2.19C56.56,17.95,60.82,24.47,60.82,31.99z"/>
</svg>
