<?xml version="1.0" encoding="utf-8"?>
<!-- Generator: Adobe Illustrator 26.0.3, SVG Export Plug-In . SVG Version: 6.00 Build 0)  -->
<svg version="1.1" id="Camada_1" xmlns="http://www.w3.org/2000/svg" xmlns:xlink="http://www.w3.org/1999/xlink" x="0px" y="0px"
	 viewBox="0 0 24 24" style="enable-background:new 0 0 24 24;" xml:space="preserve">
<style type="text/css">
	.st0{fill:#FFFFFF;}
</style>
<path class="st0" d="M15.5,11.3L9.9,5.6c-0.4-0.4-1-0.4-1.4,0c0,0,0,0,0,0C8.1,6,8.1,6.7,8.5,7l4.9,5l-4.9,5c-0.4,0.4-0.4,1,0,1.4
	c0.2,0.2,0.4,0.3,0.7,0.3c0.3,0,0.5-0.1,0.7-0.3l5.7-5.6C15.9,12.4,16,11.8,15.5,11.3C15.6,11.3,15.6,11.3,15.5,11.3z"/>
</svg>
